<svg width="26" height="26" viewBox="0 0 26 26" fill="none" xmlns="http://www.w3.org/2000/svg">
<g clip-path="url(#clip0_2_80)">
<path d="M15.1667 8.66666V6.49999C15.1667 5.92536 14.9384 5.37426 14.5321 4.96793C14.1257 4.5616 13.5746 4.33333 13 4.33333H5.41667C4.84203 4.33333 4.29093 4.5616 3.8846 4.96793C3.47827 5.37426 3.25 5.92536 3.25 6.49999V19.5C3.25 20.0746 3.47827 20.6257 3.8846 21.0321C4.29093 21.4384 4.84203 21.6667 5.41667 21.6667H13C13.5746 21.6667 14.1257 21.4384 14.5321 21.0321C14.9384 20.6257 15.1667 20.0746 15.1667 19.5V17.3333" stroke="#E5E5E5" stroke-width="1.625" stroke-linecap="round" stroke-linejoin="round"/>
<path d="M7.58333 13H22.75M22.75 13L19.5 9.75M22.75 13L19.5 16.25" stroke="#E5E5E5" stroke-width="1.625" stroke-linecap="round" stroke-linejoin="round"/>
</g>
<defs>
<clipPath id="clip0_2_80">
<rect width="26" height="26" fill="white"/>
</clipPath>
</defs>
</svg>
