<svg width="20" height="20" viewBox="0 0 20 20" fill="none" xmlns="http://www.w3.org/2000/svg">
<g clip-path="url(#clip0_2_156)">
<path d="M5.83333 15C4.79356 15 3.79637 14.6049 3.06115 13.9017C2.32592 13.1984 1.91287 12.2446 1.91287 11.25C1.91287 10.2554 2.32592 9.30161 3.06115 8.59835C3.79637 7.89509 4.79356 7.5 5.83333 7.5C6.0789 6.40598 6.7973 5.44457 7.83048 4.82726C8.34207 4.5216 8.91553 4.30962 9.51814 4.20343C10.1207 4.09723 10.7407 4.0989 11.3426 4.20833C11.9445 4.31777 12.5165 4.53283 13.0261 4.84123C13.5356 5.14964 13.9727 5.54535 14.3123 6.00577C14.6519 6.4662 14.8874 6.98232 15.0054 7.52466C15.1234 8.06701 15.1216 8.62496 15 9.16667H15.8333C16.6069 9.16667 17.3487 9.47396 17.8957 10.0209C18.4427 10.5679 18.75 11.3098 18.75 12.0833C18.75 12.8569 18.4427 13.5987 17.8957 14.1457C17.3487 14.6927 16.6069 15 15.8333 15H15" stroke="#E5E5E5" stroke-width="1.25" stroke-linecap="round" stroke-linejoin="round"/>
<path d="M7.5 12.5L10 10L12.5 12.5" stroke="#E5E5E5" stroke-width="1.25" stroke-linecap="round" stroke-linejoin="round"/>
<path d="M10 10V17.5" stroke="#E5E5E5" stroke-width="1.25" stroke-linecap="round" stroke-linejoin="round"/>
</g>
<defs>
<clipPath id="clip0_2_156">
<rect width="20" height="20" fill="white"/>
</clipPath>
</defs>
</svg>
