<svg width="26" height="26" viewBox="0 0 26 26" fill="none" xmlns="http://www.w3.org/2000/svg">
<g clip-path="url(#clip0_2_75)">
<path d="M13 22.75C18.3848 22.75 22.75 18.3848 22.75 13C22.75 7.61522 18.3848 3.25 13 3.25C7.61522 3.25 3.25 7.61522 3.25 13C3.25 18.3848 7.61522 22.75 13 22.75Z" stroke="#E5E5E5" stroke-width="1.625" stroke-linecap="round" stroke-linejoin="round"/>
<path d="M13 18.4167V18.4275" stroke="#E5E5E5" stroke-width="1.625" stroke-linecap="round" stroke-linejoin="round"/>
<path d="M13 14.625C12.98 14.2733 13.0749 13.9247 13.2703 13.6316C13.4657 13.3385 13.751 13.1169 14.0833 13C14.4905 12.8443 14.856 12.5962 15.151 12.2752C15.446 11.9542 15.6625 11.5692 15.7834 11.1503C15.9043 10.7315 15.9264 10.2903 15.8478 9.86144C15.7692 9.43263 15.5922 9.02791 15.3306 8.67914C15.069 8.33038 14.7301 8.04709 14.3404 7.85159C13.9507 7.65608 13.521 7.55369 13.0851 7.55249C12.6491 7.55128 12.2188 7.65128 11.8281 7.84462C11.4374 8.03796 11.0968 8.31936 10.8333 8.66667" stroke="#E5E5E5" stroke-width="1.625" stroke-linecap="round" stroke-linejoin="round"/>
</g>
<defs>
<clipPath id="clip0_2_75">
<rect width="26" height="26" fill="white"/>
</clipPath>
</defs>
</svg>
